# xmcd CD database file
#
# Track frame offsets:
#	150
#	19297
#	42882
#	63452
#
# Disc length: 1098 seconds
#
# Revision: 0
# Processed by: cddbd v1.5PL3 Copyright (c) Steve Scherf et al.
# Submitted via: CDex 1.50beta9
#
DISCID=2f044804
DTITLE=長谷実果 - kiss
DYEAR=2001
DGENRE=J ポップ
TTITLE0=kiss
TTITLE1=傷つきながら…もがきながら…
TTITLE2=kiss -Blue Mondays mix-
TTITLE3=kiss -Instrumental-
EXTD=YEAR: 2001
EXTT0=
EXTT1=
EXTT2=
EXTT3=
PLAYORDER=
